# AST/ASF file generated using VICON BodyLanguage
# -----------------------------------------------
:version 1.10
:name VICON
:units
  mass 1.0
  length 0.45
  angle deg
:documentation
   .ast/.asf automatically generated from VICON data using
   VICON BodyBuilder and BodyLanguage model FoxedUp or BRILLIANT.MOD
:root
   order TX TY TZ RX RY RZ
   axis XYZ
   position 0 0 0  
   orientation 0 0 0 
:bonedata
  begin
     id 1 
     name lhipjoint
     direction 0.690799 -0.707083 0.151096 
     length 2.54797 
     axis 0 0 0  XYZ
  end
  begin
     id 2 
     name lfemur
     direction 0.34202 -0.939693 0  
     length 7.21646  
     axis 0 0 20  XYZ
    dof rx ry rz
    limits (-160.0 20.0)
           (-70.0 70.0)
           (-60.0 70.0)
  end
  begin
     id 3 
     name ltibia
     direction 0.34202 -0.939693 0   
     length 8.16759   
     axis 0 0 20   XYZ
    dof rx
    limits (-10.0 170.0)
  end
  begin
     id 4 
     name lfoot
     direction 0.0487203 -0.133858 0.989802   
     length 1.93375   
     axis -90 7.62852e-016 20   XYZ
    dof rx rz
    limits (-45.0 90.0)
           (-70.0 20.0)
  end
  begin
     id 5 
     name ltoes
     direction 1.53453e-011 -4.21783e-011 1   
     length 0.979747   
     axis -90 7.62852e-016 20   XYZ
    dof rx
    limits (-90.0 20.0)
  end
  begin
     id 6 
     name rhipjoint
     direction -0.694693 -0.703425 0.150315   
     length 2.56122  
     axis 0 0 0  XYZ 
  end
  begin
     id 7 
     name rfemur
     direction -0.34202 -0.939693 0   
     length 7.36786   
     axis 0 0 -20   XYZ
    dof rx ry rz
    limits (-160.0 20.0)
           (-70.0 70.0)
           (-70.0 60.0)
  end
  begin
     id 8 
     name rtibia
     direction -0.34202 -0.939693 0   
     length 8.07288   
     axis 0 0 -20   XYZ
    dof rx
    limits (-10.0 170.0)
 end
 begin
     id 9 
     name rfoot
     direction -0.0428397 -0.117701 0.992125   
     length 1.88295  
     axis -90 -7.62852e-016 -20   XYZ
    dof rx rz
    limits (-45.0 90.0)
           (-20.0 70.0)
  end
  begin
     id 10 
     name rtoes
     direction -1.53456e-011 -4.2187e-011 1   
     length 0.955578   
     axis -90 -7.62852e-016 -20   XYZ
    dof rx
    limits (-90.0 20.0)
  end
  begin
     id 11 
     name lowerback
     direction 0.0288145 0.999398 -0.0193241   
     length 1.92149   
     axis 0 0 0   XYZ
    dof rx ry rz
    limits (-20.0 45.0)
           (-30.0 30.0)
           (-30.0 30.0)
  end
  begin
     id 12 
     name upperback
     direction 0.0233784 0.998099 0.0570278   
     length 1.90435   
     axis 0 0 0   XYZ
    dof rx ry rz
    limits (-20.0 45.0)
           (-30.0 30.0)
           (-30.0 30.0)
  end
  begin
     id 13 
     name thorax
     direction 0.0096694 0.997833 0.0650817   
     length 1.9111   
     axis 0 0 0   XYZ
    dof rx ry rz
    limits (-20.0 45.0)
           (-30.0 30.0)
           (-30.0 30.0)
  end
  begin
     id 14 
     name lowerneck
     direction 0.00516803 0.999916 0.0118722   
     length 1.74664   
     axis 0 0 0   XYZ
    dof rx ry rz
    limits (-20.0 45.0)
           (-30.0 30.0)
           (-30.0 30.0)
  end
  begin
     id 15 
     name upperneck
     direction -0.0510851 0.996117 -0.071696   
     length 1.68498   
     axis 0 0 0   XYZ
    dof rx ry rz
    limits (-20.0 45.0)
           (-30.0 30.0)
           (-30.0 30.0)
  end
  begin
     id 16
     name head
     direction -0.019188 0.999436 -0.0275702  
     length 1.83483  
     axis 0 0 0   XYZ
    dof rx ry rz
    limits (-20.0 45.0)
           (-30.0 30.0)
           (-30.0 30.0)
  end
  begin
     id 17 
     name lclavicle
     direction 0.967006 0.248456 -0.0562957  
     length 3.39395  
     axis 0 0 0   XYZ
    dof ry rz
    limits (-20.0 10.0)
           (0.0 20.0)
  end
  begin
     id 18 
     name lhumerus
     direction 1 -4.48962e-011 -5.62711e-019   
     length 5.24318   
     axis 180 -30 -90   XYZ
    dof rx ry rz
    limits (-60.0 90.0)
           (-90.0 90.0)
           (-90.0 90.0)
  end
  begin
     id 19
     name lradius
     direction 1 -4.48966e-011 7.90625e-027   
     length 2.98999   
     axis 180 -30 -90   XYZ
    dof rx
    limits (-10.0 170.0)
  end
  begin
     id 20
     name lwrist
     direction 1 -4.48959e-011 1.61068e-026   
     length 1.49499   
     axis -9.31229e-015 90 90   XYZ
    dof ry
    limits (-180.0 0.0)
 end
  begin
     id 21 
     name lhand
     direction 1 -4.49017e-011 3.22136e-026   
     length 0.726745   
     axis -2.0555e-014 90 90   XYZ
    dof rx rz
    limits (-90.0 90.0)
           (-45.0 45.0)
  end
  begin
     id 22 
     name lfingers
     direction 1 -4.4898e-011 6.44272e-026   
     length 0.58592   
     axis -4.11101e-014 90 90   XYZ
    dof rx
    limits (0.0 90.0)
  end
  begin
     id 23
     name lthumb
     direction 0.707107 -6.34922e-011 0.707107   
     length 0.841268   
     axis -90 45 2.85299e-015   XYZ
    dof rx rz
    limits (-45.0 45.0)
           (-45.0 45.0)
  end
  begin
     id 24 
     name rclavicle
     direction -0.972232 0.230238 0.0419005   
     length 3.40416  
     axis 0 0 0   XYZ 
    dof ry rz
    limits (-10.0 20.0)
           (-20.0 0.0)
  end
  begin
     id 25 
     name rhumerus
     direction -1 -4.48976e-011 2.48487e-027  
     length 5.37045   
     axis 180 30 90   XYZ
    dof rx ry rz
    limits (-90.0 60.0)
           (-90.0 90.0)
           (-90.0 90.0)
  end
  begin
     id 26 
     name rradius
     direction -1 -4.48942e-011 7.87951e-027   
     length 2.92792   
     axis 180 30 90   XYZ
    dof rx
    limits (-10.0 170.0)
  end
  begin
     id 27 
     name rwrist
     direction -1 -4.48969e-011 1.61068e-026   
     length 1.46396   
     axis -9.31229e-015 -90 -90   XYZ
    dof ry
    limits (-180.0 0.0)
  end
  begin
     id 28
     name rhand
     direction -1 -4.49043e-011 3.22136e-026   
     length 0.784497   
     axis -2.0555e-014 -90 -90   XYZ
    dof rx rz
    limits (-90.0 90.0)
           (-45.0 45.0)
  end
  begin
     id 29
     name rfingers
     direction -1 -4.48823e-011 6.44272e-026   
     length 0.632482   
     axis -4.11101e-014 -90 -90   XYZ
    dof rx
    limits (0.0 90.0)
  end
  begin
     id 30
     name rthumb
     direction -0.707107 -6.34923e-011 0.707107   
     length 0.908121   
     axis -90 -45 -2.85299e-015   XYZ
    dof rx rz
    limits (-45.0 45.0)
           (-45.0 45.0)
  end
:hierarchy
  begin
    root lhipjoint rhipjoint lowerback
    lhipjoint lfemur
    lfemur ltibia
    ltibia lfoot
    lfoot ltoes
    rhipjoint rfemur
    rfemur rtibia
    rtibia rfoot
    rfoot rtoes
    lowerback upperback
    upperback thorax
    thorax lowerneck lclavicle rclavicle
    lowerneck upperneck
    upperneck head
    lclavicle lhumerus
    lhumerus lradius
    lradius lwrist
    lwrist lhand lthumb
    lhand lfingers
    rclavicle rhumerus
    rhumerus rradius
    rradius rwrist
    rwrist rhand rthumb
    rhand rfingers
  end

#!OML:ASF E:\Style6\Style6.ASF
:FULLY-SPECIFIED
:DEGREES
1938
root 0.433603 17.387 -1.00661 13.8938 -0.492577 -2.34198
lowerback 9.55189 0.0190078 5.57545
upperback 2.65492 0.623834 2.20781
thorax -2.55627 0.291765 -0.915383
lowerneck 10.0551 9.5197 4.34497
upperneck -18.6247 11.2392 -15.0762
head -6.09814 6.53092 -6.39907
rclavicle -8.74653e-015 -1.74931e-014
rhumerus 7.92476 21.3448 -93.0335
rradius 138.165
rwrist 51.3475
rhand 30.0967 -6.58777
rfingers 7.12502
rthumb 53.7939 -25.5642
lclavicle -8.74653e-015 -1.74931e-014
lhumerus 6.27325 -22.6837 92.0242
lradius 132.88
lwrist -32.71
lhand 8.12574 36.9394
lfingers 7.12502
lthumb 33.3466 63.8658
rfemur -39.0274 -6.09688 22.896
rtibia 39.4265
rfoot -8.83602 -2.65483
rtoes -9.36421
lfemur -38.8952 3.24234 -16.0639
ltibia 43.4708
lfoot -12.6157 1.32035
ltoes -19.4025
1939
root 0.435196 17.3824 -1.00963 13.8713 -0.465605 -2.32804
lowerback 9.61098 -0.00225486 5.58038
upperback 2.68607 0.599023 2.20417
thorax -2.55775 0.279892 -0.919307
lowerneck 10.0849 9.53844 4.26754
upperneck -18.6842 11.2428 -15.1038
head -6.12526 6.54233 -6.40238
rclavicle -7.55382e-015 -3.10104e-014
rhumerus 7.94556 21.3941 -93.0351
rradius 138.152
rwrist 51.2784
rhand 29.8969 -6.71481
rfingers 7.12502
rthumb 53.6143 -25.8103
lclavicle -7.55382e-015 -3.10104e-014
lhumerus 6.29033 -22.6772 92.0159
lradius 132.87
lwrist -32.8177
lhand 8.11725 36.9655
lfingers 7.12502
lthumb 33.3385 63.8936
rfemur -39.0578 -6.18757 22.8975
rtibia 39.5188
rfoot -8.78454 -2.62665
rtoes -10.2701
lfemur -38.9319 3.26432 -16.0889
ltibia 43.5561
lfoot -12.6625 1.25197
ltoes -19.0395
1940
root 0.436605 17.378 -1.01282 13.8637 -0.452602 -2.32388
lowerback 9.64404 -0.00433476 5.59103
upperback 2.72936 0.597103 2.18941
thorax -2.53071 0.280184 -0.940437
lowerneck 10.061 9.54966 4.22127
upperneck -18.7231 11.243 -15.1304
head -6.13465 6.54836 -6.40479
rclavicle 6.36111e-015 9.54166e-015
rhumerus 8.02652 21.4123 -93.0142
rradius 138.139
rwrist 51.2788
rhand 29.7218 -6.92992
rfingers 7.12502
rthumb 53.4566 -26.1288
lclavicle 6.36111e-015 9.54166e-015
lhumerus 6.35271 -22.6652 91.939
lradius 132.901
lwrist -32.8812
lhand 8.15518 37.0006
lfingers 7.12502
lthumb 33.3746 63.9211
rfemur -39.1227 -6.26748 22.9129
rtibia 39.6224
rfoot -8.64192 -2.63834
rtoes -12.334
lfemur -39.0083 3.301 -16.1097
ltibia 43.6793
lfoot -12.7337 1.23855
ltoes -19.1195
1941
root 0.437342 17.3697 -1.0166 13.8667 -0.483089 -2.37593
lowerback 9.70531 6.55961e-005 5.63231
upperback 2.74165 0.610753 2.18515
thorax -2.55036 0.286535 -0.969784
lowerneck 10.0623 9.56246 4.18479
upperneck -18.7633 11.2468 -15.1571
head -6.14781 6.55605 -6.41069
rclavicle 3.18055e-015 1.35174e-014
rhumerus 8.06868 21.5123 -93.0016
rradius 138.101
rwrist 51.2874
rhand 29.6326 -7.13127
rfingers 7.12502
rthumb 53.3763 -26.3824
lclavicle 3.18055e-015 1.35174e-014
lhumerus 6.33807 -22.6334 91.8952
lradius 132.948
lwrist -32.9136
lhand 8.23422 36.9354
lfingers 7.12502
lthumb 33.4497 63.8396
rfemur -39.2079 -6.27355 22.9745
rtibia 39.7361
rfoot -8.57975 -2.62238
rtoes -12.9266
lfemur -39.116 3.39135 -16.0747
ltibia 43.8358
lfoot -12.7939 1.25918
ltoes -19.4435
1942
root 0.438233 17.3611 -1.02076 13.8814 -0.511138 -2.42551
lowerback 9.64686 0.026788 5.64436
upperback 2.82018 0.639016 2.20262
thorax -2.43465 0.304323 -0.961085
lowerneck 10.0024 9.56455 4.1841
upperneck -18.7812 11.2386 -15.2176
head -6.1396 6.55691 -6.42645
rclavicle -6.36111e-015 -2.46493e-014
rhumerus 8.23153 21.5253 -92.9005
rradius 138.066
rwrist 51.2191
rhand 29.6801 -7.10008
rfingers 7.12502
rthumb 53.4191 -26.3234
lclavicle -6.36111e-015 -2.46493e-014
lhumerus 6.46574 -22.6746 91.8599
lradius 132.953
lwrist -32.9053
lhand 8.20094 36.9386
lfingers 7.12502
lthumb 33.4181 63.8497
rfemur -39.3243 -6.30858 23.0487
rtibia 39.8577
rfoot -8.55318 -2.55377
rtoes -13.0669
lfemur -39.2488 3.50196 -16.0532
ltibia 44.0074
lfoot -12.8121 1.23802
ltoes -19.8275
1943
root 0.439564 17.3553 -1.02487 13.8627 -0.503911 -2.43961
lowerback 9.70565 0.022278 5.63495
upperback 2.8415 0.636194 2.22259
thorax -2.44544 0.302963 -0.935076
lowerneck 9.94179 9.601 4.06665
upperneck -18.7158 11.2856 -15.1421
head -6.11694 6.57812 -6.37797
rclavicle -2.14687e-014 -4.21423e-014
rhumerus 8.33203 21.5622 -92.8119
rradius 138.066
rwrist 51.2046
rhand 30.2822 -6.68406
rfingers 7.12502
rthumb 53.9605 -25.5487
lclavicle -2.14687e-014 -4.21423e-014
lhumerus 6.48077 -22.6674 91.842
lradius 132.975
lwrist -32.8727
lhand 8.04722 36.9035
lfingers 7.12502
lthumb 33.2719 63.8459
rfemur -39.4065 -6.39664 23.0939
rtibia 39.9934
rfoot -8.58183 -2.49922
rtoes -13.858
lfemur -39.3493 3.60479 -16.0651
ltibia 44.1695
lfoot -12.8688 1.0836
ltoes -19.5997
1944
root 0.44091 17.3492 -1.02662 13.8578 -0.490207 -2.42597
lowerback 9.7501 0.0145139 5.62499
upperback 2.84197 0.628532 2.22635
thorax -2.47011 0.298615 -0.924986
lowerneck 9.98854 9.61302 3.99056
upperneck -18.7361 11.2918 -15.1153
head -6.13822 6.58538 -6.36301
rclavicle 2.78299e-015 9.54166e-015
rhumerus 8.40889 21.634 -92.7286
rradius 138.052
rwrist 51.2584
rhand 30.6577 -6.28662
rfingers 7.12502
rthumb 54.2973 -24.9216
lclavicle 2.78299e-015 9.54166e-015
lhumerus 6.49048 -22.6254 91.8163
lradius 132.988
lwrist -32.8304
lhand 7.98968 36.8332
lfingers 7.12502
lthumb 33.2172 63.7873
rfemur -39.4989 -6.51667 23.1113
rtibia 40.1408
rfoot -8.69146 -2.37361
rtoes -13.5076
lfemur -39.4321 3.71362 -16.1136
ltibia 44.3077
lfoot -12.9149 0.95948
ltoes -19.8537
1945
root 0.441511 17.342 -1.02905 13.872 -0.474077 -2.36502
lowerback 9.80039 0.0178551 5.57779
upperback 2.83673 0.631964 2.2068
thorax -2.50357 0.299594 -0.919623
lowerneck 10.0832 9.61207 3.95781
upperneck -18.8433 11.2761 -15.1228
head -6.19212 6.58513 -6.3738
rclavicle -1.39149e-014 -4.13472e-014
rhumerus 8.43178 21.6498 -92.6928
rradius 138.013
rwrist 51.3618
rhand 30.1281 -6.48362
rfingers 7.12502
rthumb 53.8221 -25.4412
lclavicle -1.39149e-014 -4.13472e-014
lhumerus 6.57693 -22.6269 91.7849
lradius 132.986
lwrist -32.8135
lhand 8.04765 36.8113
lfingers 7.12502
lthumb 33.2723 63.7537
rfemur -39.6207 -6.62594 23.0707
rtibia 40.3025
rfoot -8.77977 -2.24585
rtoes -12.4745
lfemur -39.5327 3.74436 -16.195
ltibia 44.4244
lfoot -12.9478 0.892527
ltoes -19.6747
1946
root 0.441878 17.3349 -1.03092 13.8887 -0.435853 -2.36529
lowerback 9.84726 0.0164754 5.58716
upperback 2.82612 0.63485 2.19423
thorax -2.54005 0.300038 -0.938539
lowerneck 10.1528 9.62284 3.96107
upperneck -18.9407 11.2879 -15.1072
head -6.23468 6.5929 -6.38133
rclavicle -3.18055e-015 -1.03368e-014
rhumerus 8.39869 21.6273 -92.7121
rradius 138.023
rwrist 51.3052
rhand 29.7687 -6.75982
rfingers 7.12502
rthumb 53.4989 -25.9311
lclavicle -3.18055e-015 -1.03368e-014
lhumerus 6.66969 -22.6542 91.7531
lradius 132.965
lwrist -32.7904
lhand 8.06412 36.8494
lfingers 7.12502
lthumb 33.288 63.7884
rfemur -39.7371 -6.73134 23.0999
rtibia 40.4725
rfoot -8.84074 -2.12637
rtoes -11.8632
lfemur -39.6363 3.7495 -16.204
ltibia 44.5354
lfoot -12.9922 0.878327
ltoes -19.8192
